# xmcd
#
# Track frame offsets: 
#        150
#        17440
#        34932
#        49352
#        64615
#        79462
#        94417
#        108965
#        122760
#        137325
#
# Disc length: 2039 seconds
#
# Revision: 3
# Processed by: cddbd v1.5.2PL0 Copyright (c) Steve Scherf et al.
# Submitted via: ExactAudioCopy v0.95a5
#
DISCID=8207f50a
DTITLE=Don Williams - Prime Cuts
DYEAR=1989
DGENRE=Country
TTITLE0=Old Coyote Town
TTITLE1=Heartbeat In The Darkness
TTITLE2=I'll Never Be In Love Again
TTITLE3=I Wouldn't Be A Man
TTITLE4=What's The Score
TTITLE5=We've Got A Good Fire Goin'
TTITLE6=Desperately
TTITLE7=She's A Heart Full
TTITLE8=Another Place, Another Time
TTITLE9=Then It's Love
EXTD=(c)1989 Capitol Records - capitol EMI\nupc 077779144426\nProduced
EXTD=by Don Williams and Garth Fundis
EXTT0=
EXTT1=
EXTT2=
EXTT3=
EXTT4=
EXTT5=
EXTT6=
EXTT7=
EXTT8=
EXTT9=
PLAYORDER=
